<svg width="2881" height="698" viewBox="0 0 2881 698" fill="none" xmlns="http://www.w3.org/2000/svg">
<path d="M818.92 243.24C818.92 232.787 818.173 224.04 816.68 217C823.933 216.147 831.293 215.72 838.76 215.72C842.387 215.72 844.2 217.32 844.2 220.52V394.28C844.2 404.947 840.573 413.267 833.32 419.24C826.067 425.213 816.147 428.2 803.56 428.2C791.187 428.2 782.013 425.213 776.04 419.24C770.067 425.213 760.893 428.2 748.52 428.2C736.36 428.2 726.867 425.427 720.04 419.88C713.427 414.333 710.12 406.227 710.12 395.56V244.2C710.12 239.72 709.16 236.627 707.24 234.92C705.533 233 702.44 232.04 697.96 232.04C697.96 219.88 704.787 213.8 718.44 213.8C729.747 213.8 735.4 221.16 735.4 235.88V394.28C735.4 398.333 736.68 401.533 739.24 403.88C742.013 406.013 745.533 407.08 749.8 407.08C754.067 407.08 757.587 406.12 760.36 404.2C763.133 402.067 764.52 399.187 764.52 395.56V243.24C764.52 232.787 763.773 224.04 762.28 217C769.533 216.147 776.893 215.72 784.36 215.72C787.987 215.72 789.8 217.32 789.8 220.52V394.28C789.8 398.333 791.08 401.533 793.64 403.88C796.413 406.013 799.933 407.08 804.2 407.08C808.68 407.08 812.2 406.013 814.76 403.88C817.533 401.533 818.92 398.333 818.92 394.28V243.24ZM867.27 421.16V247.72C867.27 237.053 870.897 228.733 878.15 222.76C885.403 216.787 895.323 213.8 907.91 213.8C920.497 213.8 930.203 216.573 937.03 222.12C944.07 227.667 947.59 235.773 947.59 246.44V397.8C947.59 402.28 948.443 405.48 950.15 407.4C952.07 409.107 955.27 409.96 959.75 409.96C959.75 422.12 952.923 428.2 939.27 428.2C927.963 428.2 922.31 420.84 922.31 406.12V345H892.55V394.92L893.83 425C886.577 426.067 879.43 426.6 872.39 426.6C868.977 426.6 867.27 424.787 867.27 421.16ZM892.55 247.72V323.88H922.31V247.72C922.31 243.667 920.923 240.573 918.15 238.44C915.377 236.093 911.75 234.92 907.27 234.92C902.79 234.92 899.163 236.093 896.39 238.44C893.83 240.573 892.55 243.667 892.55 247.72ZM1026.68 347.88C1020.92 347.88 1015.16 348.413 1009.4 349.48C1007.69 343.507 1006.84 337.64 1006.84 331.88C1006.84 328.467 1008.33 326.76 1011.32 326.76H1051.96V397.8C1051.96 402.28 1052.81 405.48 1054.52 407.4C1056.22 409.32 1059.32 410.28 1063.8 410.28C1064.01 415.827 1062.52 420.2 1059.32 423.4C1056.33 426.6 1051.96 428.2 1046.2 428.2C1037.24 428.2 1031.48 424.893 1028.92 418.28C1022.94 424.893 1014.73 428.2 1004.28 428.2C982.518 428.2 971.638 417.96 971.638 397.48V247.72C971.638 237.053 975.264 228.733 982.518 222.76C989.771 216.787 999.478 213.8 1011.64 213.8C1024.01 213.8 1033.82 216.573 1041.08 222.12C1048.33 227.453 1051.96 234.493 1051.96 243.24V279.72C1051.96 283.56 1049.18 286.227 1043.64 287.72C1040.65 288.573 1037.66 289 1034.68 289C1031.69 289 1028.7 288.68 1025.72 288.04C1026.36 282.92 1026.68 277.48 1026.68 271.72V247.72C1026.68 243.667 1025.29 240.573 1022.52 238.44C1019.74 236.093 1016.12 234.92 1011.64 234.92C1007.16 234.92 1003.53 236.093 1000.76 238.44C998.198 240.573 996.918 243.667 996.918 247.72V395.56C996.918 403.24 1000.76 407.08 1008.44 407.08C1016.33 407.08 1022.41 403.347 1026.68 395.88V347.88ZM1078.89 421.16V244.52C1078.89 240.04 1077.93 236.947 1076.01 235.24C1074.3 233.32 1071.21 232.36 1066.73 232.36C1066.73 220.2 1073.55 214.12 1087.21 214.12C1098.51 214.12 1104.17 221.48 1104.17 236.2V319.72H1133.93V247.08L1132.65 217C1139.9 215.933 1147.05 215.4 1154.09 215.4C1157.5 215.4 1159.2 217.213 1159.2 220.84V397.8C1159.2 402.28 1160.06 405.48 1161.77 407.4C1163.69 409.107 1166.89 409.96 1171.37 409.96C1171.37 422.12 1164.54 428.2 1150.89 428.2C1139.58 428.2 1133.93 420.84 1133.93 406.12V340.84H1104.17V394.92L1105.45 425C1098.19 426.067 1091.05 426.6 1084.01 426.6C1080.59 426.6 1078.89 424.787 1078.89 421.16ZM1226.7 316.84C1234.38 316.84 1240.14 316.307 1243.98 315.24C1245.68 321.213 1246.54 327.08 1246.54 332.84C1246.54 336.253 1245.04 337.96 1242.06 337.96H1223.18C1218.7 337.96 1215.07 339.133 1212.3 341.48C1209.74 343.827 1208.46 346.92 1208.46 350.76V394.28C1208.46 398.333 1209.74 401.533 1212.3 403.88C1215.07 406.013 1218.7 407.08 1223.18 407.08C1227.66 407.08 1231.28 406.013 1234.06 403.88C1236.83 401.533 1238.22 398.333 1238.22 394.28V386.28L1237.26 369.96C1240.24 369.32 1243.23 369 1246.22 369C1249.2 369 1252.19 369.427 1255.18 370.28C1260.72 371.773 1263.5 374.44 1263.5 378.28V398.76C1263.5 407.507 1259.87 414.653 1252.62 420.2C1245.36 425.533 1235.55 428.2 1223.18 428.2C1211.02 428.2 1201.31 425.213 1194.06 419.24C1186.8 413.267 1183.18 404.947 1183.18 394.28V349.48C1183.18 339.88 1186.27 332.52 1192.46 327.4C1186.27 322.28 1183.18 314.92 1183.18 305.32V247.72C1183.18 237.053 1186.8 228.733 1194.06 222.76C1201.31 216.787 1210.91 213.8 1222.86 213.8C1235.02 213.8 1244.62 216.573 1251.66 222.12C1258.7 227.453 1262.22 234.493 1262.22 243.24V270.12C1262.22 273.96 1259.44 276.627 1253.9 278.12C1250.91 278.973 1247.92 279.4 1244.94 279.4C1241.95 279.4 1238.96 279.08 1235.98 278.44C1236.62 273.32 1236.94 267.88 1236.94 262.12V247.72C1236.94 239.187 1232.24 234.92 1222.86 234.92C1218.38 234.92 1214.86 236.093 1212.3 238.44C1209.74 240.573 1208.46 243.667 1208.46 247.72V304.04C1208.46 307.88 1209.63 310.973 1211.98 313.32C1214.54 315.667 1217.84 316.84 1221.9 316.84H1226.7ZM1280.67 290.92V247.72C1280.67 237.053 1284.3 228.733 1291.55 222.76C1298.8 216.787 1308.51 213.8 1320.67 213.8C1333.04 213.8 1342.86 216.573 1350.11 222.12C1357.36 227.453 1360.99 234.493 1360.99 243.24V282.92C1360.99 286.76 1358.22 289.427 1352.67 290.92C1349.68 291.773 1346.7 292.2 1343.71 292.2C1340.72 292.2 1337.74 291.88 1334.75 291.24C1335.39 286.12 1335.71 280.68 1335.71 274.92V247.72C1335.71 243.667 1334.32 240.573 1331.55 238.44C1328.78 236.093 1325.15 234.92 1320.67 234.92C1316.19 234.92 1312.56 236.093 1309.79 238.44C1307.23 240.573 1305.95 243.667 1305.95 247.72V285.16C1305.95 292.627 1308.4 297.853 1313.31 300.84L1347.23 322.6C1356.83 328.573 1361.63 337.747 1361.63 350.12V394.28C1361.63 404.947 1357.9 413.267 1350.43 419.24C1342.96 425.213 1333.04 428.2 1320.67 428.2C1308.51 428.2 1298.7 425.533 1291.23 420.2C1283.76 414.653 1280.03 407.507 1280.03 398.76V359.08C1280.03 355.24 1282.8 352.573 1288.35 351.08C1291.34 350.227 1294.32 349.8 1297.31 349.8C1300.3 349.8 1303.28 350.12 1306.27 350.76C1305.63 355.88 1305.31 361.32 1305.31 367.08V394.28C1305.31 398.12 1306.8 401.213 1309.79 403.56C1312.78 405.907 1316.51 407.08 1320.99 407.08C1325.47 407.08 1329.1 405.907 1331.87 403.56C1334.86 401.213 1336.35 398.12 1336.35 394.28V358.12C1336.35 349.8 1333.47 343.827 1327.71 340.2L1293.79 318.12C1285.04 312.573 1280.67 303.507 1280.67 290.92ZM1385.14 421.16V244.52C1385.14 240.04 1384.18 236.947 1382.26 235.24C1380.55 233.32 1377.46 232.36 1372.98 232.36C1372.98 220.2 1379.8 214.12 1393.46 214.12C1404.76 214.12 1410.42 221.48 1410.42 236.2V319.72H1440.18V247.08L1438.9 217C1446.15 215.933 1453.3 215.4 1460.34 215.4C1463.75 215.4 1465.45 217.213 1465.45 220.84V397.8C1465.45 402.28 1466.31 405.48 1468.02 407.4C1469.94 409.107 1473.14 409.96 1477.62 409.96C1477.62 422.12 1470.79 428.2 1457.14 428.2C1445.83 428.2 1440.18 420.84 1440.18 406.12V340.84H1410.42V394.92L1411.7 425C1404.44 426.067 1397.3 426.6 1390.26 426.6C1386.84 426.6 1385.14 424.787 1385.14 421.16ZM1601.11 243.24C1601.11 232.787 1600.36 224.04 1598.87 217C1606.12 216.147 1613.48 215.72 1620.95 215.72C1624.57 215.72 1626.39 217.32 1626.39 220.52V394.28C1626.39 404.947 1622.76 413.267 1615.51 419.24C1608.25 425.213 1598.33 428.2 1585.75 428.2C1573.37 428.2 1564.2 425.213 1558.23 419.24C1552.25 425.213 1543.08 428.2 1530.71 428.2C1518.55 428.2 1509.05 425.427 1502.23 419.88C1495.61 414.333 1492.31 406.227 1492.31 395.56V244.2C1492.31 239.72 1491.35 236.627 1489.43 234.92C1487.72 233 1484.63 232.04 1480.15 232.04C1480.15 219.88 1486.97 213.8 1500.63 213.8C1511.93 213.8 1517.59 221.16 1517.59 235.88V394.28C1517.59 398.333 1518.87 401.533 1521.43 403.88C1524.2 406.013 1527.72 407.08 1531.99 407.08C1536.25 407.08 1539.77 406.12 1542.55 404.2C1545.32 402.067 1546.71 399.187 1546.71 395.56V243.24C1546.71 232.787 1545.96 224.04 1544.47 217C1551.72 216.147 1559.08 215.72 1566.55 215.72C1570.17 215.72 1571.99 217.32 1571.99 220.52V394.28C1571.99 398.333 1573.27 401.533 1575.83 403.88C1578.6 406.013 1582.12 407.08 1586.39 407.08C1590.87 407.08 1594.39 406.013 1596.95 403.88C1599.72 401.533 1601.11 398.333 1601.11 394.28V243.24ZM1649.46 421.16V247.72C1649.46 237.053 1653.08 228.733 1660.34 222.76C1667.59 216.787 1677.51 213.8 1690.1 213.8C1702.68 213.8 1712.39 216.573 1719.22 222.12C1726.26 227.667 1729.78 235.773 1729.78 246.44V397.8C1729.78 402.28 1730.63 405.48 1732.34 407.4C1734.26 409.107 1737.46 409.96 1741.94 409.96C1741.94 422.12 1735.11 428.2 1721.46 428.2C1710.15 428.2 1704.5 420.84 1704.5 406.12V345H1674.74V394.92L1676.02 425C1668.76 426.067 1661.62 426.6 1654.58 426.6C1651.16 426.6 1649.46 424.787 1649.46 421.16ZM1674.74 247.72V323.88H1704.5V247.72C1704.5 243.667 1703.11 240.573 1700.34 238.44C1697.56 236.093 1693.94 234.92 1689.46 234.92C1684.98 234.92 1681.35 236.093 1678.58 238.44C1676.02 240.573 1674.74 243.667 1674.74 247.72ZM1756.07 421.16V248.04C1756.07 243.347 1755.21 240.04 1753.51 238.12C1751.8 235.987 1748.71 234.92 1744.23 234.92C1744.01 229.373 1745.51 225 1748.71 221.8C1751.91 218.6 1757.03 217 1764.07 217C1771.11 217 1776.12 220.52 1779.11 227.56C1787.43 220.52 1795.96 217 1804.71 217C1825.83 217 1836.39 227.453 1836.39 248.36V322.6C1836.39 336.04 1830.73 345.64 1819.43 351.4L1826.15 394.28C1827.21 401.107 1830.52 404.52 1836.07 404.52C1837.77 404.52 1839.8 404.093 1842.15 403.24C1843 405.8 1843.43 408.893 1843.43 412.52C1843.43 415.933 1841.61 419.453 1837.99 423.08C1834.57 426.493 1830.09 428.2 1824.55 428.2C1811.96 428.2 1804.81 422.76 1803.11 411.88L1793.83 356.52H1781.35V394.92L1782.62 425C1775.37 426.067 1768.23 426.6 1761.19 426.6C1757.77 426.6 1756.07 424.787 1756.07 421.16ZM1798.63 238.12C1792.87 238.12 1787.11 241 1781.35 246.76V335.4H1796.07C1800.55 335.4 1804.17 334.333 1806.95 332.2C1809.72 329.853 1811.11 326.653 1811.11 322.6V250.28C1811.11 242.173 1806.95 238.12 1798.63 238.12ZM1860.4 421.16V247.08L1859.12 217C1866.38 215.933 1873.52 215.4 1880.56 215.4C1883.98 215.4 1885.68 217.213 1885.68 220.84V394.92L1886.96 425C1879.71 426.067 1872.56 426.6 1865.52 426.6C1862.11 426.6 1860.4 424.787 1860.4 421.16ZM2002.3 347.88C1996.54 347.88 1990.78 348.413 1985.02 349.48C1983.32 343.507 1982.46 337.64 1982.46 331.88C1982.46 328.467 1983.96 326.76 1986.94 326.76H2027.58V397.8C2027.58 402.28 2028.44 405.48 2030.14 407.4C2031.85 409.32 2034.94 410.28 2039.42 410.28C2039.64 415.827 2038.14 420.2 2034.94 423.4C2031.96 426.6 2027.58 428.2 2021.82 428.2C2012.86 428.2 2007.1 424.893 2004.54 418.28C1998.57 424.893 1990.36 428.2 1979.9 428.2C1958.14 428.2 1947.26 417.96 1947.26 397.48V247.72C1947.26 237.053 1950.89 228.733 1958.14 222.76C1965.4 216.787 1975.1 213.8 1987.26 213.8C1999.64 213.8 2009.45 216.573 2016.7 222.12C2023.96 227.453 2027.58 234.493 2027.58 243.24V279.72C2027.58 283.56 2024.81 286.227 2019.26 287.72C2016.28 288.573 2013.29 289 2010.3 289C2007.32 289 2004.33 288.68 2001.34 288.04C2001.98 282.92 2002.3 277.48 2002.3 271.72V247.72C2002.3 243.667 2000.92 240.573 1998.14 238.44C1995.37 236.093 1991.74 234.92 1987.26 234.92C1982.78 234.92 1979.16 236.093 1976.38 238.44C1973.82 240.573 1972.54 243.667 1972.54 247.72V395.56C1972.54 403.24 1976.38 407.08 1984.06 407.08C1991.96 407.08 1998.04 403.347 2002.3 395.88V347.88ZM2051.31 395.56V247.72C2051.31 237.053 2054.94 228.733 2062.19 222.76C2069.44 216.787 2079.36 213.8 2091.95 213.8C2104.54 213.8 2114.24 216.573 2121.07 222.12C2128.11 227.667 2131.63 235.773 2131.63 246.44V394.28C2131.63 404.947 2127.9 413.267 2120.43 419.24C2113.18 425.213 2103.26 428.2 2090.67 428.2C2078.08 428.2 2068.38 425.427 2061.55 419.88C2054.72 414.333 2051.31 406.227 2051.31 395.56ZM2076.59 247.72V394.28C2076.59 398.12 2077.87 401.213 2080.43 403.56C2083.2 405.907 2086.83 407.08 2091.31 407.08C2095.79 407.08 2099.42 406.013 2102.19 403.88C2104.96 401.533 2106.35 398.333 2106.35 394.28V247.72C2106.35 243.667 2104.96 240.573 2102.19 238.44C2099.42 236.093 2095.79 234.92 2091.31 234.92C2086.83 234.92 2083.2 236.093 2080.43 238.44C2077.87 240.573 2076.59 243.667 2076.59 247.72ZM2201.83 403.88C2209.51 403.88 2215.27 403.347 2219.11 402.28C2220.82 408.253 2221.67 414.12 2221.67 419.88C2221.67 423.293 2220.18 425 2217.19 425H2154.15V247.08L2152.87 217C2160.13 215.933 2167.27 215.4 2174.31 215.4C2177.73 215.4 2179.43 217.213 2179.43 220.84V403.88H2201.83ZM2279.26 238.12C2273.5 238.12 2267.74 241 2261.98 246.76V403.88H2276.7C2281.18 403.88 2284.8 402.813 2287.58 400.68C2290.35 398.333 2291.74 395.133 2291.74 391.08V250.28C2291.74 242.173 2287.58 238.12 2279.26 238.12ZM2285.34 217C2306.46 217 2317.02 227.453 2317.02 248.36V391.08C2317.02 401.747 2313.28 410.067 2305.82 416.04C2298.56 422.013 2288.64 425 2276.06 425H2236.7V248.04C2236.7 243.347 2235.84 240.04 2234.14 238.12C2232.43 235.987 2229.34 234.92 2224.86 234.92C2224.64 229.373 2226.14 225 2229.34 221.8C2232.54 218.6 2237.66 217 2244.7 217C2251.95 217 2256.96 220.52 2259.74 227.56C2268.06 220.52 2276.59 217 2285.34 217ZM2481.26 423.4C2481.26 426.6 2479.24 428.2 2475.18 428.2C2458.12 428.2 2446.7 425.747 2440.94 420.84C2434.12 425.747 2425.37 428.2 2414.7 428.2C2404.04 428.2 2395.08 425.213 2387.82 419.24C2380.57 413.267 2376.94 404.947 2376.94 394.28V353.32C2376.94 343.72 2380.04 336.36 2386.22 331.24C2380.04 326.12 2376.94 318.76 2376.94 309.16V247.72C2376.94 237.053 2380.57 228.733 2387.82 222.76C2395.08 216.787 2404.68 213.8 2416.62 213.8C2428.78 213.8 2438.38 216.573 2445.42 222.12C2452.46 227.453 2455.98 234.493 2455.98 243.24V266.92C2455.98 270.76 2453.21 273.427 2447.66 274.92C2444.68 275.773 2441.69 276.2 2438.7 276.2C2435.72 276.2 2432.73 275.88 2429.74 275.24C2430.38 270.12 2430.7 264.68 2430.7 258.92V247.72C2430.7 239.187 2426.01 234.92 2416.62 234.92C2412.14 234.92 2408.62 236.093 2406.06 238.44C2403.5 240.573 2402.22 243.667 2402.22 247.72V307.88C2402.22 311.72 2403.4 314.813 2405.74 317.16C2408.3 319.507 2411.61 320.68 2415.66 320.68H2432.62L2435.82 303.08C2436.25 300.093 2438.06 297.96 2441.26 296.68C2444.46 295.187 2447.24 294.44 2449.58 294.44C2452.14 294.44 2454.28 294.547 2455.98 294.76V320.68H2461.42L2478.06 319.08C2479.13 324.627 2479.66 329.533 2479.66 333.8C2479.66 337.853 2478.28 339.88 2475.5 339.88H2455.98V394.28C2455.98 399.4 2457.8 403.027 2461.42 405.16C2465.26 407.08 2468.68 408.04 2471.66 408.04C2474.86 408.04 2477.53 407.827 2479.66 407.4C2480.73 412.947 2481.26 418.28 2481.26 423.4ZM2431.98 395.56V341.8H2416.94C2412.46 341.8 2408.84 342.973 2406.06 345.32C2403.5 347.667 2402.22 350.76 2402.22 354.6V394.28C2402.22 398.333 2403.5 401.533 2406.06 403.88C2408.84 406.013 2412.36 407.08 2416.62 407.08C2421.1 407.08 2424.73 406.12 2427.5 404.2C2430.49 402.067 2431.98 399.187 2431.98 395.56ZM2615.38 396.84C2615.38 405.8 2611.54 413.267 2603.86 419.24C2596.39 425.213 2586.58 428.2 2574.42 428.2C2562.26 428.2 2552.66 425.427 2545.62 419.88C2538.58 414.333 2535.06 406.227 2535.06 395.56V247.72C2535.06 237.053 2538.69 228.733 2545.94 222.76C2553.19 216.787 2562.9 213.8 2575.06 213.8C2587.43 213.8 2597.25 216.573 2604.5 222.12C2611.75 227.453 2615.38 234.493 2615.38 243.24V282.92C2615.38 286.76 2612.61 289.427 2607.06 290.92C2604.07 291.773 2601.09 292.2 2598.1 292.2C2595.11 292.2 2592.13 291.88 2589.14 291.24C2589.78 286.12 2590.1 280.68 2590.1 274.92V247.72C2590.1 243.667 2588.71 240.573 2585.94 238.44C2583.17 236.093 2579.54 234.92 2575.06 234.92C2570.58 234.92 2566.95 236.093 2564.18 238.44C2561.62 240.573 2560.34 243.667 2560.34 247.72V394.28C2560.34 398.12 2561.62 401.213 2564.18 403.56C2566.95 405.907 2570.58 407.08 2575.06 407.08C2579.54 407.08 2583.17 406.013 2585.94 403.88C2588.71 401.533 2590.1 398.333 2590.1 394.28V387.24L2589.14 370.92C2592.13 370.28 2595.11 369.96 2598.1 369.96C2601.09 369.96 2604.07 370.387 2607.06 371.24C2612.61 372.733 2615.38 375.4 2615.38 379.24V396.84ZM2634.43 395.56V247.72C2634.43 237.053 2638.06 228.733 2645.32 222.76C2652.57 216.787 2662.49 213.8 2675.08 213.8C2687.66 213.8 2697.37 216.573 2704.2 222.12C2711.24 227.667 2714.76 235.773 2714.76 246.44V394.28C2714.76 404.947 2711.02 413.267 2703.56 419.24C2696.3 425.213 2686.38 428.2 2673.8 428.2C2661.21 428.2 2651.5 425.427 2644.68 419.88C2637.85 414.333 2634.43 406.227 2634.43 395.56ZM2659.72 247.72V394.28C2659.72 398.12 2661 401.213 2663.56 403.56C2666.33 405.907 2669.96 407.08 2674.44 407.08C2678.92 407.08 2682.54 406.013 2685.32 403.88C2688.09 401.533 2689.48 398.333 2689.48 394.28V247.72C2689.48 243.667 2688.09 240.573 2685.32 238.44C2682.54 236.093 2678.92 234.92 2674.44 234.92C2669.96 234.92 2666.33 236.093 2663.56 238.44C2661 240.573 2659.72 243.667 2659.72 247.72ZM2746.56 428.2C2737.38 428.2 2732.8 422.12 2732.8 409.96C2732.8 397.8 2737.38 391.72 2746.56 391.72C2755.73 391.72 2760.32 397.8 2760.32 409.96C2760.32 422.12 2755.73 428.2 2746.56 428.2Z" fill="#E77D00"/>
<path d="M697 457H2767.68V473H697V457Z" fill="#E77D00"/>
<circle cx="345.801" cy="318" r="240" stroke="#E77D00" stroke-width="10" stroke-miterlimit="3.8637"/>
<path d="M335.062 239.2C335.062 227.767 334.246 218.2 332.612 210.5C340.546 209.567 348.596 209.1 356.763 209.1C360.729 209.1 362.712 210.85 362.712 214.35V404.4C362.712 416.067 358.746 425.167 350.813 431.7C342.879 438.233 332.029 441.5 318.262 441.5C304.729 441.5 294.696 438.233 288.162 431.7C281.629 438.233 271.596 441.5 258.062 441.5C244.762 441.5 234.379 438.467 226.912 432.4C219.679 426.333 216.062 417.467 216.062 405.8V240.25C216.062 235.35 215.012 231.967 212.912 230.1C211.046 228 207.662 226.95 202.762 226.95C202.762 213.65 210.229 207 225.162 207C237.529 207 243.712 215.05 243.712 231.15V404.4C243.712 408.833 245.112 412.333 247.912 414.9C250.946 417.233 254.796 418.4 259.462 418.4C264.129 418.4 267.979 417.35 271.012 415.25C274.046 412.917 275.562 409.767 275.562 405.8V239.2C275.562 227.767 274.746 218.2 273.112 210.5C281.046 209.567 289.096 209.1 297.262 209.1C301.229 209.1 303.213 210.85 303.213 214.35V404.4C303.213 408.833 304.613 412.333 307.412 414.9C310.446 417.233 314.296 418.4 318.962 418.4C323.862 418.4 327.712 417.233 330.513 414.9C333.546 412.333 335.062 408.833 335.062 404.4V239.2ZM447.795 353.65C441.495 353.65 435.195 354.233 428.895 355.4C427.029 348.867 426.095 342.45 426.095 336.15C426.095 332.417 427.729 330.55 430.995 330.55H475.445V408.25C475.445 413.15 476.379 416.65 478.245 418.75C480.112 420.85 483.495 421.9 488.395 421.9C488.629 427.967 486.995 432.75 483.495 436.25C480.229 439.75 475.445 441.5 469.145 441.5C459.345 441.5 453.045 437.883 450.245 430.65C443.712 437.883 434.729 441.5 423.295 441.5C399.495 441.5 387.595 430.3 387.595 407.9V244.1C387.595 232.433 391.562 223.333 399.495 216.8C407.429 210.267 418.045 207 431.345 207C444.879 207 455.612 210.033 463.545 216.1C471.479 221.933 475.445 229.633 475.445 239.2V279.1C475.445 283.3 472.412 286.217 466.345 287.85C463.079 288.783 459.812 289.25 456.545 289.25C453.279 289.25 450.012 288.9 446.745 288.2C447.445 282.6 447.795 276.65 447.795 270.35V244.1C447.795 239.667 446.279 236.283 443.245 233.95C440.212 231.383 436.245 230.1 431.345 230.1C426.445 230.1 422.479 231.383 419.445 233.95C416.645 236.283 415.245 239.667 415.245 244.1V405.8C415.245 414.2 419.445 418.4 427.845 418.4C436.479 418.4 443.129 414.317 447.795 406.15V353.65Z" fill="#E77D00"/>
<path d="M269.875 572.275C269.532 574.871 270.309 578.511 272.848 582.044C274.093 583.787 275.502 585.11 277.026 585.965L276.649 587.168C273.172 586.925 269.313 588.103 266.356 590.414C264.859 591.579 263.743 592.832 262.981 594.259L261.779 593.882C262.199 590.838 260.972 586.931 258.611 583.831C257.455 582.305 256.133 581.104 254.667 580.266L255.044 579.064C258.427 579.403 263.008 577.728 265.747 575.412C267.12 574.24 268.086 573.065 268.672 571.897L269.875 572.275Z" fill="#E77D00"/>
<path d="M223.552 551.958C222.694 554.433 222.722 558.154 224.498 562.127C225.368 564.085 226.481 565.664 227.802 566.809L227.19 567.911C223.834 566.974 219.817 567.351 216.456 569.018C214.755 569.858 213.41 570.861 212.376 572.106L211.275 571.494C212.299 568.597 211.883 564.522 210.194 561.011C209.369 559.283 208.316 557.84 207.048 556.724L207.66 555.623C210.905 556.636 215.729 555.918 218.878 554.2C220.459 553.329 221.641 552.372 222.45 551.346L223.552 551.958Z" fill="#E77D00"/>
<path d="M182.259 522.795C180.921 525.047 180.199 528.698 181.139 532.947C181.597 535.04 182.37 536.811 183.432 538.199L182.612 539.155C179.513 537.561 175.502 537.121 171.875 538.079C170.04 538.559 168.52 539.271 167.257 540.282L166.301 539.461C167.888 536.829 168.3 532.754 167.353 528.974C166.893 527.115 166.152 525.49 165.135 524.142L165.955 523.186C168.931 524.832 173.8 525.099 177.229 524.051C178.954 523.515 180.304 522.816 181.303 521.974L182.259 522.795Z" fill="#E77D00"/>
<path d="M147.652 485.995C145.888 487.931 144.446 491.363 144.512 495.714C144.538 497.856 144.939 499.747 145.7 501.32L144.704 502.091C141.99 499.906 138.15 498.668 134.404 498.876C132.509 498.977 130.878 499.368 129.437 500.104L128.666 499.107C130.75 496.849 131.974 492.94 131.807 489.047C131.73 487.134 131.332 485.393 130.607 483.867L131.603 483.096C134.186 485.307 138.902 486.55 142.472 486.213C144.269 486.035 145.733 485.623 146.881 484.999L147.652 485.995Z" fill="#E77D00"/>
<path d="M120.638 443.232C118.52 444.773 116.417 447.844 115.606 452.119C115.2 454.223 115.212 456.155 115.642 457.849L114.511 458.405C112.291 455.718 108.779 453.732 105.068 453.181C103.192 452.899 101.515 452.953 99.9552 453.384L99.4006 452.253C101.896 450.46 103.882 446.878 104.502 443.032C104.812 441.142 104.772 439.357 104.369 437.717L105.5 437.161C107.586 439.847 111.955 442.014 115.52 442.403C117.316 442.59 118.833 442.481 120.083 442.101L120.638 443.232Z" fill="#E77D00"/>
<path d="M103.152 395.705C100.767 396.788 98.0889 399.372 96.434 403.396C95.6136 405.375 95.2363 407.27 95.3162 409.016L94.0965 409.332C92.4632 406.253 89.4219 403.601 85.8971 402.314C84.1164 401.66 82.4625 401.376 80.8481 401.484L80.5325 400.264C83.3379 399.01 86.0043 395.902 87.3858 392.259C88.0696 390.471 88.3898 388.714 88.325 387.027L89.5447 386.711C91.0468 389.761 94.8913 392.763 98.3054 393.862C100.027 394.408 101.535 394.606 102.836 394.486L103.152 395.705Z" fill="#E77D00"/>
<path d="M95.6232 345.627C93.0693 346.207 89.9261 348.199 87.4956 351.807C86.2938 353.58 85.543 355.361 85.27 357.087L84.0116 357.15C83.0311 353.806 80.5854 350.596 77.3916 348.625C75.7789 347.625 74.216 347.014 72.6128 346.795L72.5491 345.536C75.5494 344.874 78.7866 342.366 80.8727 339.076C81.9024 337.462 82.5694 335.806 82.8454 334.14L84.1038 334.076C84.9615 337.367 88.1235 341.081 91.2468 342.845C92.8234 343.727 94.2605 344.224 95.5595 344.369L95.6232 345.627Z" fill="#E77D00"/>
<path d="M594.973 347.275C597.573 346.956 600.901 345.293 603.684 341.949C605.059 340.307 605.986 338.612 606.432 336.922L607.69 336.986C608.328 340.413 610.436 343.854 613.414 346.138C614.918 347.296 616.411 348.062 617.984 348.442L617.92 349.701C614.868 350.057 611.394 352.223 608.986 355.285C607.798 356.787 606.967 358.367 606.524 359.997L605.266 359.933C604.745 356.572 601.975 352.556 599.046 350.485C597.567 349.449 596.187 348.808 594.909 348.533L594.973 347.275Z" fill="#E77D00"/>
<path d="M587.202 397.249C589.813 397.46 593.408 396.501 596.806 393.787C598.483 392.455 599.732 390.981 600.509 389.416L601.729 389.732C601.664 393.217 603.036 397.012 605.494 399.849C606.734 401.286 608.042 402.338 609.506 403.027L609.19 404.247C606.13 403.981 602.291 405.403 599.316 407.918C597.851 409.15 596.719 410.53 595.957 412.037L594.737 411.721C594.904 408.324 592.998 403.833 590.546 401.214C589.305 399.901 588.083 398.995 586.887 398.468L587.202 397.249Z" fill="#E77D00"/>
<path d="M569.626 444.7C572.14 445.433 575.854 445.217 579.729 443.243C581.639 442.276 583.159 441.083 584.235 439.707L585.366 440.262C584.601 443.663 585.182 447.657 587.018 450.931C587.943 452.588 589.013 453.882 590.308 454.852L589.754 455.984C586.809 455.106 582.763 455.727 579.344 457.591C577.661 458.503 576.274 459.627 575.225 460.95L574.094 460.395C574.94 457.1 573.977 452.317 572.102 449.258C571.152 447.722 570.137 446.588 569.071 445.832L569.626 444.7Z" fill="#E77D00"/>
<path d="M542.777 487.61C545.092 488.834 548.773 489.37 552.966 488.216C555.032 487.653 556.761 486.791 558.092 485.659L559.088 486.431C557.654 489.608 557.419 493.638 558.559 497.215C559.131 499.025 559.919 500.508 560.992 501.718L560.221 502.715C557.514 501.263 553.426 501.056 549.701 502.194C547.869 502.748 546.285 503.57 544.991 504.655L543.995 503.883C545.487 500.827 545.506 495.947 544.286 492.573C543.664 490.877 542.898 489.563 542.006 488.606L542.777 487.61Z" fill="#E77D00"/>
<path d="M507.669 524.048C509.691 525.713 513.188 526.98 517.528 526.693C519.665 526.558 521.531 526.061 523.063 525.22L523.883 526.177C521.839 529 520.798 532.901 521.194 536.634C521.391 538.522 521.864 540.132 522.671 541.535L521.716 542.356C519.356 540.388 515.393 539.363 511.516 539.727C509.61 539.901 507.892 540.388 506.406 541.19L505.586 540.234C507.663 537.54 508.664 532.764 508.148 529.213C507.88 527.427 507.394 525.985 506.714 524.869L507.669 524.048Z" fill="#E77D00"/>
<path d="M465.732 552.198C467.377 554.235 470.548 556.18 474.856 556.773C476.977 557.071 478.906 556.96 480.575 556.445L481.186 557.547C478.616 559.901 476.81 563.512 476.447 567.248C476.26 569.137 476.399 570.81 476.908 572.346L475.806 572.957C473.891 570.555 470.215 568.753 466.344 568.33C464.442 568.117 462.662 568.247 461.044 568.734L460.433 567.632C463.01 565.412 464.952 560.935 465.161 557.353C465.258 555.549 465.072 554.039 464.63 552.809L465.732 552.198Z" fill="#E77D00"/>
<path d="M419.331 571.955C420.532 574.282 423.248 576.825 427.349 578.273C429.366 578.992 431.278 579.272 433.017 579.104L433.394 580.306C430.402 582.094 427.907 585.267 426.799 588.854C426.235 590.666 426.035 592.332 426.224 593.939L425.022 594.317C423.629 591.578 420.391 589.073 416.684 587.879C414.864 587.287 413.094 587.057 411.412 587.207L411.035 586.005C414.005 584.349 416.809 580.356 417.734 576.89C418.193 575.142 418.315 573.626 418.129 572.332L419.331 571.955Z" fill="#E77D00"/>
<path d="M345.745 583.422L360.812 616.422H330.677L345.745 583.422Z" fill="#E77D00"/>
<path d="M345.744 632.422L330.392 616.422H361.096L345.744 632.422Z" fill="#E77D00"/>
</svg>
