<svg width="881" height="210" viewBox="0 0 881 210" fill="none" xmlns="http://www.w3.org/2000/svg">
<path d="M252.1 59.2C252.1 55.9333 251.867 53.2 251.4 51C253.667 50.7333 255.967 50.6 258.3 50.6C259.433 50.6 260 51.1 260 52.1V106.4C260 109.733 258.867 112.333 256.6 114.2C254.333 116.067 251.233 117 247.3 117C243.433 117 240.567 116.067 238.7 114.2C236.833 116.067 233.967 117 230.1 117C226.3 117 223.333 116.133 221.2 114.4C219.133 112.667 218.1 110.133 218.1 106.8V59.5C218.1 58.1 217.8 57.1333 217.2 56.6C216.667 56 215.7 55.7 214.3 55.7C214.3 51.9 216.433 50 220.7 50C224.233 50 226 52.3 226 56.9V106.4C226 107.667 226.4 108.667 227.2 109.4C228.067 110.067 229.167 110.4 230.5 110.4C231.833 110.4 232.933 110.1 233.8 109.5C234.667 108.833 235.1 107.933 235.1 106.8V59.2C235.1 55.9333 234.867 53.2 234.4 51C236.667 50.7333 238.967 50.6 241.3 50.6C242.433 50.6 243 51.1 243 52.1V106.4C243 107.667 243.4 108.667 244.2 109.4C245.067 110.067 246.167 110.4 247.5 110.4C248.9 110.4 250 110.067 250.8 109.4C251.667 108.667 252.1 107.667 252.1 106.4V59.2ZM267.209 114.8V60.6C267.209 57.2667 268.343 54.6667 270.609 52.8C272.876 50.9333 275.976 50 279.909 50C283.843 50 286.876 50.8667 289.009 52.6C291.209 54.3333 292.309 56.8667 292.309 60.2V107.5C292.309 108.9 292.576 109.9 293.109 110.5C293.709 111.033 294.709 111.3 296.109 111.3C296.109 115.1 293.976 117 289.709 117C286.176 117 284.409 114.7 284.409 110.1V91H275.109V106.6L275.509 116C273.243 116.333 271.009 116.5 268.809 116.5C267.743 116.5 267.209 115.933 267.209 114.8ZM275.109 60.6V84.4H284.409V60.6C284.409 59.3333 283.976 58.3667 283.109 57.7C282.243 56.9667 281.109 56.6 279.709 56.6C278.309 56.6 277.176 56.9667 276.309 57.7C275.509 58.3667 275.109 59.3333 275.109 60.6ZM317.024 91.9C315.224 91.9 313.424 92.0667 311.624 92.4C311.091 90.5333 310.824 88.7 310.824 86.9C310.824 85.8333 311.291 85.3 312.224 85.3H324.924V107.5C324.924 108.9 325.191 109.9 325.724 110.5C326.258 111.1 327.224 111.4 328.624 111.4C328.691 113.133 328.224 114.5 327.224 115.5C326.291 116.5 324.924 117 323.124 117C320.324 117 318.524 115.967 317.724 113.9C315.858 115.967 313.291 117 310.024 117C303.224 117 299.824 113.8 299.824 107.4V60.6C299.824 57.2667 300.958 54.6667 303.224 52.8C305.491 50.9333 308.524 50 312.324 50C316.191 50 319.258 50.8667 321.524 52.6C323.791 54.2667 324.924 56.4667 324.924 59.2V70.6C324.924 71.8 324.058 72.6333 322.324 73.1C321.391 73.3667 320.458 73.5 319.524 73.5C318.591 73.5 317.658 73.4 316.724 73.2C316.924 71.6 317.024 69.9 317.024 68.1V60.6C317.024 59.3333 316.591 58.3667 315.724 57.7C314.858 56.9667 313.724 56.6 312.324 56.6C310.924 56.6 309.791 56.9667 308.924 57.7C308.124 58.3667 307.724 59.3333 307.724 60.6V106.8C307.724 109.2 308.924 110.4 311.324 110.4C313.791 110.4 315.691 109.233 317.024 106.9V91.9ZM333.339 114.8V59.6C333.339 58.2 333.039 57.2333 332.439 56.7C331.906 56.1 330.939 55.8 329.539 55.8C329.539 52 331.672 50.1 335.939 50.1C339.472 50.1 341.239 52.4 341.239 57V83.1H350.539V60.4L350.139 51C352.406 50.6667 354.639 50.5 356.839 50.5C357.906 50.5 358.439 51.0667 358.439 52.2V107.5C358.439 108.9 358.706 109.9 359.239 110.5C359.839 111.033 360.839 111.3 362.239 111.3C362.239 115.1 360.106 117 355.839 117C352.306 117 350.539 114.7 350.539 110.1V89.7H341.239V106.6L341.639 116C339.372 116.333 337.139 116.5 334.939 116.5C333.872 116.5 333.339 115.933 333.339 114.8ZM379.53 82.2C381.93 82.2 383.73 82.0333 384.93 81.7C385.464 83.5667 385.73 85.4 385.73 87.2C385.73 88.2667 385.264 88.8 384.33 88.8H378.43C377.03 88.8 375.897 89.1667 375.03 89.9C374.23 90.6333 373.83 91.6 373.83 92.8V106.4C373.83 107.667 374.23 108.667 375.03 109.4C375.897 110.067 377.03 110.4 378.43 110.4C379.83 110.4 380.964 110.067 381.83 109.4C382.697 108.667 383.13 107.667 383.13 106.4V103.9L382.83 98.8C383.764 98.6 384.697 98.5 385.63 98.5C386.564 98.5 387.497 98.6333 388.43 98.9C390.164 99.3667 391.03 100.2 391.03 101.4V107.8C391.03 110.533 389.897 112.767 387.63 114.5C385.364 116.167 382.297 117 378.43 117C374.63 117 371.597 116.067 369.33 114.2C367.064 112.333 365.93 109.733 365.93 106.4V92.4C365.93 89.4 366.897 87.1 368.83 85.5C366.897 83.9 365.93 81.6 365.93 78.6V60.6C365.93 57.2667 367.064 54.6667 369.33 52.8C371.597 50.9333 374.597 50 378.33 50C382.13 50 385.13 50.8667 387.33 52.6C389.53 54.2667 390.63 56.4667 390.63 59.2V67.6C390.63 68.8 389.764 69.6333 388.03 70.1C387.097 70.3667 386.164 70.5 385.23 70.5C384.297 70.5 383.364 70.4 382.43 70.2C382.63 68.6 382.73 66.9 382.73 65.1V60.6C382.73 57.9333 381.264 56.6 378.33 56.6C376.93 56.6 375.83 56.9667 375.03 57.7C374.23 58.3667 373.83 59.3333 373.83 60.6V78.2C373.83 79.4 374.197 80.3667 374.93 81.1C375.73 81.8333 376.764 82.2 378.03 82.2H379.53ZM396.397 74.1V60.6C396.397 57.2667 397.53 54.6667 399.797 52.8C402.064 50.9333 405.097 50 408.897 50C412.764 50 415.83 50.8667 418.097 52.6C420.364 54.2667 421.497 56.4667 421.497 59.2V71.6C421.497 72.8 420.63 73.6333 418.897 74.1C417.964 74.3667 417.03 74.5 416.097 74.5C415.164 74.5 414.23 74.4 413.297 74.2C413.497 72.6 413.597 70.9 413.597 69.1V60.6C413.597 59.3333 413.164 58.3667 412.297 57.7C411.43 56.9667 410.297 56.6 408.897 56.6C407.497 56.6 406.364 56.9667 405.497 57.7C404.697 58.3667 404.297 59.3333 404.297 60.6V72.3C404.297 74.6333 405.064 76.2667 406.597 77.2L417.197 84C420.197 85.8667 421.697 88.7333 421.697 92.6V106.4C421.697 109.733 420.53 112.333 418.197 114.2C415.864 116.067 412.764 117 408.897 117C405.097 117 402.03 116.167 399.697 114.5C397.364 112.767 396.197 110.533 396.197 107.8V95.4C396.197 94.2 397.064 93.3667 398.797 92.9C399.73 92.6333 400.664 92.5 401.597 92.5C402.53 92.5 403.464 92.6 404.397 92.8C404.197 94.4 404.097 96.1 404.097 97.9V106.4C404.097 107.6 404.564 108.567 405.497 109.3C406.43 110.033 407.597 110.4 408.997 110.4C410.397 110.4 411.53 110.033 412.397 109.3C413.33 108.567 413.797 107.6 413.797 106.4V95.1C413.797 92.5 412.897 90.6333 411.097 89.5L400.497 82.6C397.764 80.8667 396.397 78.0333 396.397 74.1ZM429.042 114.8V59.6C429.042 58.2 428.742 57.2333 428.142 56.7C427.609 56.1 426.642 55.8 425.242 55.8C425.242 52 427.376 50.1 431.642 50.1C435.176 50.1 436.942 52.4 436.942 57V83.1H446.242V60.4L445.842 51C448.109 50.6667 450.342 50.5 452.542 50.5C453.609 50.5 454.142 51.0667 454.142 52.2V107.5C454.142 108.9 454.409 109.9 454.942 110.5C455.542 111.033 456.542 111.3 457.942 111.3C457.942 115.1 455.809 117 451.542 117C448.009 117 446.242 114.7 446.242 110.1V89.7H436.942V106.6L437.342 116C435.076 116.333 432.842 116.5 430.642 116.5C429.576 116.5 429.042 115.933 429.042 114.8ZM496.534 59.2C496.534 55.9333 496.3 53.2 495.834 51C498.1 50.7333 500.4 50.6 502.734 50.6C503.867 50.6 504.434 51.1 504.434 52.1V106.4C504.434 109.733 503.3 112.333 501.034 114.2C498.767 116.067 495.667 117 491.734 117C487.867 117 485 116.067 483.134 114.2C481.267 116.067 478.4 117 474.534 117C470.734 117 467.767 116.133 465.634 114.4C463.567 112.667 462.534 110.133 462.534 106.8V59.5C462.534 58.1 462.234 57.1333 461.634 56.6C461.1 56 460.134 55.7 458.734 55.7C458.734 51.9 460.867 50 465.134 50C468.667 50 470.434 52.3 470.434 56.9V106.4C470.434 107.667 470.834 108.667 471.634 109.4C472.5 110.067 473.6 110.4 474.934 110.4C476.267 110.4 477.367 110.1 478.234 109.5C479.1 108.833 479.534 107.933 479.534 106.8V59.2C479.534 55.9333 479.3 53.2 478.834 51C481.1 50.7333 483.4 50.6 485.734 50.6C486.867 50.6 487.434 51.1 487.434 52.1V106.4C487.434 107.667 487.834 108.667 488.634 109.4C489.5 110.067 490.6 110.4 491.934 110.4C493.334 110.4 494.434 110.067 495.234 109.4C496.1 108.667 496.534 107.667 496.534 106.4V59.2ZM511.643 114.8V60.6C511.643 57.2667 512.776 54.6667 515.043 52.8C517.31 50.9333 520.41 50 524.343 50C528.276 50 531.31 50.8667 533.443 52.6C535.643 54.3333 536.743 56.8667 536.743 60.2V107.5C536.743 108.9 537.01 109.9 537.543 110.5C538.143 111.033 539.143 111.3 540.543 111.3C540.543 115.1 538.41 117 534.143 117C530.61 117 528.843 114.7 528.843 110.1V91H519.543V106.6L519.943 116C517.676 116.333 515.443 116.5 513.243 116.5C512.176 116.5 511.643 115.933 511.643 114.8ZM519.543 60.6V84.4H528.843V60.6C528.843 59.3333 528.41 58.3667 527.543 57.7C526.676 56.9667 525.543 56.6 524.143 56.6C522.743 56.6 521.61 56.9667 520.743 57.7C519.943 58.3667 519.543 59.3333 519.543 60.6ZM544.958 114.8V60.7C544.958 59.2333 544.691 58.2 544.158 57.6C543.624 56.9333 542.658 56.6 541.258 56.6C541.191 54.8667 541.658 53.5 542.658 52.5C543.658 51.5 545.258 51 547.458 51C549.658 51 551.224 52.1 552.158 54.3C554.758 52.1 557.424 51 560.158 51C566.758 51 570.058 54.2667 570.058 60.8V84C570.058 88.2 568.291 91.2 564.758 93L566.858 106.4C567.191 108.533 568.224 109.6 569.958 109.6C570.491 109.6 571.124 109.467 571.858 109.2C572.124 110 572.258 110.967 572.258 112.1C572.258 113.167 571.691 114.267 570.558 115.4C569.491 116.467 568.091 117 566.358 117C562.424 117 560.191 115.3 559.658 111.9L556.758 94.6H552.858V106.6L553.258 116C550.991 116.333 548.758 116.5 546.558 116.5C545.491 116.5 544.958 115.933 544.958 114.8ZM558.258 57.6C556.458 57.6 554.658 58.5 552.858 60.3V88H557.458C558.858 88 559.991 87.6667 560.858 87C561.724 86.2667 562.158 85.2667 562.158 84V61.4C562.158 58.8667 560.858 57.6 558.258 57.6ZM577.563 114.8V60.4L577.163 51C579.43 50.6667 581.663 50.5 583.863 50.5C584.93 50.5 585.463 51.0667 585.463 52.2V106.6L585.863 116C583.597 116.333 581.363 116.5 579.163 116.5C578.097 116.5 577.563 115.933 577.563 114.8ZM621.907 91.9C620.107 91.9 618.307 92.0667 616.507 92.4C615.974 90.5333 615.707 88.7 615.707 86.9C615.707 85.8333 616.174 85.3 617.107 85.3H629.807V107.5C629.807 108.9 630.074 109.9 630.607 110.5C631.14 111.1 632.107 111.4 633.507 111.4C633.574 113.133 633.107 114.5 632.107 115.5C631.174 116.5 629.807 117 628.007 117C625.207 117 623.407 115.967 622.607 113.9C620.74 115.967 618.174 117 614.907 117C608.107 117 604.707 113.8 604.707 107.4V60.6C604.707 57.2667 605.84 54.6667 608.107 52.8C610.374 50.9333 613.407 50 617.207 50C621.074 50 624.14 50.8667 626.407 52.6C628.674 54.2667 629.807 56.4667 629.807 59.2V70.6C629.807 71.8 628.94 72.6333 627.207 73.1C626.274 73.3667 625.34 73.5 624.407 73.5C623.474 73.5 622.54 73.4 621.607 73.2C621.807 71.6 621.907 69.9 621.907 68.1V60.6C621.907 59.3333 621.474 58.3667 620.607 57.7C619.74 56.9667 618.607 56.6 617.207 56.6C615.807 56.6 614.674 56.9667 613.807 57.7C613.007 58.3667 612.607 59.3333 612.607 60.6V106.8C612.607 109.2 613.807 110.4 616.207 110.4C618.674 110.4 620.574 109.233 621.907 106.9V91.9ZM637.222 106.8V60.6C637.222 57.2667 638.355 54.6667 640.622 52.8C642.889 50.9333 645.989 50 649.922 50C653.855 50 656.889 50.8667 659.022 52.6C661.222 54.3333 662.322 56.8667 662.322 60.2V106.4C662.322 109.733 661.155 112.333 658.822 114.2C656.555 116.067 653.455 117 649.522 117C645.589 117 642.555 116.133 640.422 114.4C638.289 112.667 637.222 110.133 637.222 106.8ZM645.122 60.6V106.4C645.122 107.6 645.522 108.567 646.322 109.3C647.189 110.033 648.322 110.4 649.722 110.4C651.122 110.4 652.255 110.067 653.122 109.4C653.989 108.667 654.422 107.667 654.422 106.4V60.6C654.422 59.3333 653.989 58.3667 653.122 57.7C652.255 56.9667 651.122 56.6 649.722 56.6C648.322 56.6 647.189 56.9667 646.322 57.7C645.522 58.3667 645.122 59.3333 645.122 60.6ZM684.26 109.4C686.66 109.4 688.46 109.233 689.66 108.9C690.193 110.767 690.46 112.6 690.46 114.4C690.46 115.467 689.993 116 689.06 116H669.36V60.4L668.96 51C671.227 50.6667 673.46 50.5 675.66 50.5C676.727 50.5 677.26 51.0667 677.26 52.2V109.4H684.26ZM708.455 57.6C706.655 57.6 704.855 58.5 703.055 60.3V109.4H707.655C709.055 109.4 710.189 109.067 711.055 108.4C711.922 107.667 712.355 106.667 712.355 105.4V61.4C712.355 58.8667 711.055 57.6 708.455 57.6ZM710.355 51C716.955 51 720.255 54.2667 720.255 60.8V105.4C720.255 108.733 719.089 111.333 716.755 113.2C714.489 115.067 711.389 116 707.455 116H695.155V60.7C695.155 59.2333 694.889 58.2 694.355 57.6C693.822 56.9333 692.855 56.6 691.455 56.6C691.389 54.8667 691.855 53.5 692.855 52.5C693.855 51.5 695.455 51 697.655 51C699.922 51 701.489 52.1 702.355 54.3C704.955 52.1 707.622 51 710.355 51ZM771.582 115.5C771.582 116.5 770.949 117 769.682 117C764.349 117 760.782 116.233 758.982 114.7C756.849 116.233 754.115 117 750.782 117C747.449 117 744.649 116.067 742.382 114.2C740.115 112.333 738.982 109.733 738.982 106.4V93.6C738.982 90.6 739.949 88.3 741.882 86.7C739.949 85.1 738.982 82.8 738.982 79.8V60.6C738.982 57.2667 740.115 54.6667 742.382 52.8C744.649 50.9333 747.649 50 751.382 50C755.182 50 758.182 50.8667 760.382 52.6C762.582 54.2667 763.682 56.4667 763.682 59.2V66.6C763.682 67.8 762.815 68.6333 761.082 69.1C760.149 69.3667 759.215 69.5 758.282 69.5C757.349 69.5 756.415 69.4 755.482 69.2C755.682 67.6 755.782 65.9 755.782 64.1V60.6C755.782 57.9333 754.315 56.6 751.382 56.6C749.982 56.6 748.882 56.9667 748.082 57.7C747.282 58.3667 746.882 59.3333 746.882 60.6V79.4C746.882 80.6 747.249 81.5667 747.982 82.3C748.782 83.0333 749.815 83.4 751.082 83.4H756.382L757.382 77.9C757.515 76.9667 758.082 76.3 759.082 75.9C760.082 75.4333 760.949 75.2 761.682 75.2C762.482 75.2 763.149 75.2333 763.682 75.3V83.4H765.382L770.582 82.9C770.915 84.6333 771.082 86.1667 771.082 87.5C771.082 88.7667 770.649 89.4 769.782 89.4H763.682V106.4C763.682 108 764.249 109.133 765.382 109.8C766.582 110.4 767.649 110.7 768.582 110.7C769.582 110.7 770.415 110.633 771.082 110.5C771.415 112.233 771.582 113.9 771.582 115.5ZM756.182 106.8V90H751.482C750.082 90 748.949 90.3667 748.082 91.1C747.282 91.8333 746.882 92.8 746.882 94V106.4C746.882 107.667 747.282 108.667 748.082 109.4C748.949 110.067 750.049 110.4 751.382 110.4C752.782 110.4 753.915 110.1 754.782 109.5C755.715 108.833 756.182 107.933 756.182 106.8ZM813.494 107.2C813.494 110 812.294 112.333 809.894 114.2C807.56 116.067 804.494 117 800.694 117C796.894 117 793.894 116.133 791.694 114.4C789.494 112.667 788.394 110.133 788.394 106.8V60.6C788.394 57.2667 789.527 54.6667 791.794 52.8C794.06 50.9333 797.094 50 800.894 50C804.76 50 807.827 50.8667 810.094 52.6C812.36 54.2667 813.494 56.4667 813.494 59.2V71.6C813.494 72.8 812.627 73.6333 810.894 74.1C809.96 74.3667 809.027 74.5 808.094 74.5C807.16 74.5 806.227 74.4 805.294 74.2C805.494 72.6 805.594 70.9 805.594 69.1V60.6C805.594 59.3333 805.16 58.3667 804.294 57.7C803.427 56.9667 802.294 56.6 800.894 56.6C799.494 56.6 798.36 56.9667 797.494 57.7C796.694 58.3667 796.294 59.3333 796.294 60.6V106.4C796.294 107.6 796.694 108.567 797.494 109.3C798.36 110.033 799.494 110.4 800.894 110.4C802.294 110.4 803.427 110.067 804.294 109.4C805.16 108.667 805.594 107.667 805.594 106.4V104.2L805.294 99.1C806.227 98.9 807.16 98.8 808.094 98.8C809.027 98.8 809.96 98.9333 810.894 99.2C812.627 99.6667 813.494 100.5 813.494 101.7V107.2ZM819.448 106.8V60.6C819.448 57.2667 820.582 54.6667 822.848 52.8C825.115 50.9333 828.215 50 832.148 50C836.082 50 839.115 50.8667 841.248 52.6C843.448 54.3333 844.548 56.8667 844.548 60.2V106.4C844.548 109.733 843.382 112.333 841.048 114.2C838.782 116.067 835.682 117 831.748 117C827.815 117 824.782 116.133 822.648 114.4C820.515 112.667 819.448 110.133 819.448 106.8ZM827.348 60.6V106.4C827.348 107.6 827.748 108.567 828.548 109.3C829.415 110.033 830.548 110.4 831.948 110.4C833.348 110.4 834.482 110.067 835.348 109.4C836.215 108.667 836.648 107.667 836.648 106.4V60.6C836.648 59.3333 836.215 58.3667 835.348 57.7C834.482 56.9667 833.348 56.6 831.948 56.6C830.548 56.6 829.415 56.9667 828.548 57.7C827.748 58.3667 827.348 59.3333 827.348 60.6ZM854.487 117C851.62 117 850.187 115.1 850.187 111.3C850.187 107.5 851.62 105.6 854.487 105.6C857.353 105.6 858.787 107.5 858.787 111.3C858.787 115.1 857.353 117 854.487 117Z" fill="#E77D00"/>
<path d="M214 126H861.087V131H214V126Z" fill="#E77D00"/>
<circle cx="94" cy="85" r="77.5" stroke="#E77D00" stroke-width="5" stroke-miterlimit="3.8637"/>
<path d="M91.0466 61.36C91.0466 57.93 90.8016 55.06 90.3116 52.75C92.6916 52.47 95.1066 52.33 97.5566 52.33C98.7466 52.33 99.3416 52.855 99.3416 53.905V110.92C99.3416 114.42 98.1516 117.15 95.7716 119.11C93.3916 121.07 90.1366 122.05 86.0066 122.05C81.9466 122.05 78.9366 121.07 76.9766 119.11C75.0166 121.07 72.0066 122.05 67.9466 122.05C63.9566 122.05 60.8416 121.14 58.6016 119.32C56.4316 117.5 55.3466 114.84 55.3466 111.34V61.675C55.3466 60.205 55.0316 59.19 54.4016 58.63C53.8416 58 52.8266 57.685 51.3566 57.685C51.3566 53.695 53.5966 51.7 58.0766 51.7C61.7866 51.7 63.6416 54.115 63.6416 58.945V110.92C63.6416 112.25 64.0616 113.3 64.9016 114.07C65.8116 114.77 66.9666 115.12 68.3666 115.12C69.7666 115.12 70.9216 114.805 71.8316 114.175C72.7416 113.475 73.1966 112.53 73.1966 111.34V61.36C73.1966 57.93 72.9516 55.06 72.4616 52.75C74.8416 52.47 77.2566 52.33 79.7066 52.33C80.8966 52.33 81.4916 52.855 81.4916 53.905V110.92C81.4916 112.25 81.9116 113.3 82.7516 114.07C83.6616 114.77 84.8166 115.12 86.2166 115.12C87.6866 115.12 88.8416 114.77 89.6816 114.07C90.5916 113.3 91.0466 112.25 91.0466 110.92V61.36ZM124.866 95.695C122.976 95.695 121.086 95.87 119.196 96.22C118.636 94.26 118.356 92.335 118.356 90.445C118.356 89.325 118.846 88.765 119.826 88.765H133.161V112.075C133.161 113.545 133.441 114.595 134.001 115.225C134.561 115.855 135.576 116.17 137.046 116.17C137.116 117.99 136.626 119.425 135.576 120.475C134.596 121.525 133.161 122.05 131.271 122.05C128.331 122.05 126.441 120.965 125.601 118.795C123.641 120.965 120.946 122.05 117.516 122.05C110.376 122.05 106.806 118.69 106.806 111.97V62.83C106.806 59.33 107.996 56.6 110.376 54.64C112.756 52.68 115.941 51.7 119.931 51.7C123.991 51.7 127.211 52.61 129.591 54.43C131.971 56.18 133.161 58.49 133.161 61.36V73.33C133.161 74.59 132.251 75.465 130.431 75.955C129.451 76.235 128.471 76.375 127.491 76.375C126.511 76.375 125.531 76.27 124.551 76.06C124.761 74.38 124.866 72.595 124.866 70.705V62.83C124.866 61.5 124.411 60.485 123.501 59.785C122.591 59.015 121.401 58.63 119.931 58.63C118.461 58.63 117.271 59.015 116.361 59.785C115.521 60.485 115.101 61.5 115.101 62.83V111.34C115.101 113.86 116.361 115.12 118.881 115.12C121.471 115.12 123.466 113.895 124.866 111.445V95.695Z" fill="#E77D00"/>
<path d="M69.6217 171.265C69.4636 172.57 69.8661 174.406 71.1437 176.196C71.7704 177.079 72.4762 177.751 73.237 178.189L73.0554 178.793C71.3275 178.654 69.4161 179.228 67.9583 180.377C67.2201 180.956 66.6716 181.581 66.2998 182.296L65.701 182.1C65.8954 180.57 65.2678 178.598 64.0809 177.027C63.4995 176.253 62.8378 175.642 62.1055 175.213L62.2872 174.61C63.9692 174.797 66.2367 173.976 67.5861 172.824C68.2629 172.241 68.7371 171.654 69.0229 171.069L69.6217 171.265Z" fill="#E77D00"/>
<path d="M54.3808 164.642C53.9691 165.893 53.9994 167.781 54.8921 169.803C55.329 170.801 55.8847 171.607 56.5402 172.194L56.244 172.75C54.5862 172.259 52.6088 172.431 50.9604 173.262C50.1262 173.68 49.4678 174.182 48.9642 174.809L48.4188 174.493C48.9104 173.029 48.6875 170.96 47.84 169.171C47.4257 168.291 46.9009 167.555 46.2713 166.983L46.5675 166.427C48.1711 166.956 50.5444 166.614 52.0878 165.757C52.8631 165.322 53.4413 164.843 53.8354 164.326L54.3808 164.642Z" fill="#E77D00"/>
<path d="M40.4868 155.182C39.8341 156.327 39.4859 158.188 39.953 160.355C40.1801 161.423 40.5615 162.327 41.0843 163.036L40.6837 163.522C39.1627 162.704 37.1967 162.474 35.4204 162.957C34.5219 163.199 33.7783 163.559 33.1609 164.072L32.6913 163.653C33.4647 162.313 33.6609 160.237 33.1912 158.309C32.9628 157.36 32.5975 156.531 32.097 155.842L32.4976 155.356C33.9581 156.2 36.3447 156.343 38.0237 155.814C38.868 155.544 39.5287 155.19 40.0172 154.762L40.4868 155.182Z" fill="#E77D00"/>
<path d="M29.6459 142.116C28.7759 143.106 28.0606 144.858 28.0825 147.074C28.0903 148.165 28.2822 149.127 28.652 149.926L28.1616 150.322C26.8355 149.215 24.9551 148.594 23.1173 148.709C22.1881 148.766 21.3868 148.969 20.6785 149.348L20.3028 148.842C21.33 147.686 21.94 145.692 21.8675 143.71C21.8343 142.735 21.6431 141.85 21.2912 141.075L21.7816 140.679C23.0432 141.799 25.3531 142.42 27.105 142.24C27.9867 142.145 28.7055 141.931 29.2702 141.61L29.6459 142.116Z" fill="#E77D00"/>
<path d="M20.273 127.862C19.2201 128.653 18.1674 130.218 17.7465 132.386C17.5364 133.453 17.533 134.431 17.7369 135.287L17.1759 135.573C16.0932 134.224 14.3689 133.236 12.5394 132.976C11.6149 132.842 10.7867 132.878 10.0149 133.104L9.74652 132.534C10.9869 131.614 11.9845 129.791 12.309 127.841C12.4709 126.882 12.4598 125.979 12.2687 125.151L12.8297 124.864C13.8461 126.213 15.9927 127.288 17.7507 127.467C18.6364 127.554 19.3855 127.491 20.0046 127.292L20.273 127.862Z" fill="#E77D00"/>
<path d="M14.5497 111.584C13.3585 112.139 12.015 113.449 11.1747 115.477C10.7582 116.475 10.5625 117.429 10.595 118.305L9.98671 118.469C9.18687 116.93 7.68464 115.611 5.9361 114.98C5.05277 114.659 4.23096 114.523 3.42722 114.585L3.27528 113.973C4.67649 113.331 6.01633 111.758 6.71902 109.922C7.06674 109.021 7.23344 108.137 7.20825 107.289L7.81651 107.125C8.55118 108.651 10.4516 110.142 12.1459 110.68C13.0002 110.946 13.7497 111.039 14.3977 110.973L14.5497 111.584Z" fill="#E77D00"/>
<path d="M12.3996 94.4341C11.1224 94.7268 9.5491 95.7262 8.33052 97.533C7.72798 98.4211 7.35087 99.3122 7.21269 100.176L6.58357 100.209C6.09672 98.5373 4.87736 96.9344 3.28273 95.9522C2.47756 95.454 1.69685 95.1497 0.895664 95.0419L0.865033 94.4126C2.36552 94.078 3.9863 92.8207 5.03242 91.1732C5.54873 90.3649 5.88382 89.5361 6.02346 88.7025L6.65258 88.6693C7.07805 90.3141 8.65507 92.1685 10.2146 93.0474C11.0019 93.4865 11.7198 93.734 12.369 93.8048L12.3996 94.4341Z" fill="#E77D00"/>
<path d="M175.764 94.7919C177.063 94.6353 178.725 93.8068 180.113 92.1377C180.799 91.3178 181.261 90.471 181.482 89.6265L182.111 89.6597C182.433 91.3741 183.491 93.0973 184.982 94.2425C185.734 94.823 186.481 95.208 187.268 95.3998L187.237 96.029C185.712 96.2038 183.978 97.2838 182.777 98.8125C182.185 99.5623 181.771 100.352 181.551 101.166L180.922 101.133C180.658 99.4516 179.269 97.4406 177.803 96.4018C177.063 95.882 176.372 95.5601 175.733 95.4212L175.764 94.7919Z" fill="#E77D00"/>
<path d="M173.269 111.817C174.569 111.935 176.353 111.469 178.033 110.12C178.862 109.458 179.477 108.724 179.857 107.941L180.465 108.105C180.448 109.855 181.147 111.768 182.382 113.204C183.004 113.931 183.66 114.465 184.391 114.818L184.239 115.429C182.715 115.282 180.811 115.98 179.341 117.23C178.617 117.842 178.06 118.531 177.687 119.285L177.079 119.121C177.147 117.415 176.18 115.15 174.949 113.824C174.326 113.159 173.714 112.699 173.117 112.429L173.269 111.817Z" fill="#E77D00"/>
<path d="M167.607 128.02C168.851 128.403 170.684 128.313 172.587 127.332C173.526 126.852 174.27 126.256 174.795 125.565L175.356 125.851C174.994 127.569 175.3 129.594 176.222 131.261C176.687 132.105 177.221 132.765 177.865 133.262L177.597 133.832C176.139 133.374 174.145 133.668 172.466 134.594C171.639 135.047 170.96 135.609 170.448 136.274L169.887 135.987C170.289 134.324 169.791 131.897 168.851 130.339C168.375 129.557 167.868 128.978 167.339 128.59L167.607 128.02Z" fill="#E77D00"/>
<path d="M159.155 142.918C160.293 143.547 162.1 143.829 164.153 143.252C165.165 142.97 166.011 142.536 166.661 141.962L167.151 142.358C166.456 143.973 166.35 146.025 166.918 147.849C167.203 148.773 167.593 149.53 168.122 150.149L167.746 150.655C166.415 149.908 164.409 149.793 162.585 150.363C161.688 150.641 160.913 151.056 160.281 151.605L159.791 151.209C160.515 149.656 160.513 147.171 159.906 145.449C159.597 144.584 159.218 143.912 158.779 143.423L159.155 142.918Z" fill="#E77D00"/>
<path d="M147.447 155.206C148.435 156.051 150.147 156.692 152.274 156.539C153.321 156.467 154.237 156.211 154.989 155.78L155.389 156.266C154.383 157.708 153.867 159.698 154.056 161.601C154.149 162.562 154.379 163.383 154.773 164.096L154.303 164.516C153.149 163.517 151.209 163.001 149.308 163.192C148.374 163.284 147.532 163.535 146.802 163.946L146.402 163.459C147.423 162.083 147.921 159.647 147.674 157.838C147.545 156.928 147.309 156.194 146.977 155.626L147.447 155.206Z" fill="#E77D00"/>
<path d="M133.583 164.614C134.384 165.64 135.938 166.612 138.058 166.892C139.101 167.034 140.052 166.969 140.877 166.7L141.173 167.256C139.896 168.462 138.991 170.301 138.795 172.198C138.694 173.157 138.755 174.005 138.999 174.781L138.454 175.097C137.521 173.887 135.718 172.99 133.813 172.793C132.876 172.694 131.999 172.768 131.2 173.023L130.904 172.466C132.183 171.329 133.16 169.049 133.279 167.232C133.334 166.316 133.25 165.551 133.037 164.929L133.583 164.614Z" fill="#E77D00"/>
<path d="M118.628 172.059C119.214 173.224 120.551 174.491 122.581 175.2C123.58 175.552 124.528 175.684 125.393 175.59L125.574 176.194C124.08 177.108 122.826 178.717 122.259 180.527C121.971 181.442 121.864 182.282 121.95 183.089L121.352 183.285C120.672 181.914 119.076 180.669 117.24 180.085C116.339 179.796 115.461 179.689 114.624 179.773L114.443 179.17C115.926 178.322 117.337 176.299 117.813 174.55C118.048 173.668 118.116 172.905 118.03 172.255L118.628 172.059Z" fill="#E77D00"/>
<path d="M93.5 175L102 192.5L93.5 210L85 192.5L93.5 175Z" fill="#E77D00"/>
</svg>
