<svg width="569" height="567" viewBox="0 0 569 567" fill="none" xmlns="http://www.w3.org/2000/svg">
<circle cx="281.801" cy="252" r="240" stroke="#DAA520" stroke-width="10" stroke-miterlimit="3.8637"/>
<path d="M271.062 173.2C271.062 161.767 270.246 152.2 268.612 144.5C276.546 143.567 284.596 143.1 292.763 143.1C296.729 143.1 298.712 144.85 298.712 148.35V338.4C298.712 350.067 294.746 359.167 286.813 365.7C278.879 372.233 268.029 375.5 254.262 375.5C240.729 375.5 230.696 372.233 224.162 365.7C217.629 372.233 207.596 375.5 194.062 375.5C180.762 375.5 170.379 372.467 162.912 366.4C155.679 360.333 152.062 351.467 152.062 339.8V174.25C152.062 169.35 151.012 165.967 148.912 164.1C147.046 162 143.662 160.95 138.762 160.95C138.762 147.65 146.229 141 161.162 141C173.529 141 179.712 149.05 179.712 165.15V338.4C179.712 342.833 181.112 346.333 183.912 348.9C186.946 351.233 190.796 352.4 195.462 352.4C200.129 352.4 203.979 351.35 207.012 349.25C210.046 346.917 211.562 343.767 211.562 339.8V173.2C211.562 161.767 210.746 152.2 209.112 144.5C217.046 143.567 225.096 143.1 233.262 143.1C237.229 143.1 239.213 144.85 239.213 148.35V338.4C239.213 342.833 240.613 346.333 243.412 348.9C246.446 351.233 250.296 352.4 254.962 352.4C259.862 352.4 263.712 351.233 266.513 348.9C269.546 346.333 271.062 342.833 271.062 338.4V173.2ZM383.795 287.65C377.495 287.65 371.195 288.233 364.895 289.4C363.029 282.867 362.095 276.45 362.095 270.15C362.095 266.417 363.729 264.55 366.995 264.55H411.445V342.25C411.445 347.15 412.379 350.65 414.245 352.75C416.112 354.85 419.495 355.9 424.395 355.9C424.629 361.967 422.995 366.75 419.495 370.25C416.229 373.75 411.445 375.5 405.145 375.5C395.345 375.5 389.045 371.883 386.245 364.65C379.712 371.883 370.729 375.5 359.295 375.5C335.495 375.5 323.595 364.3 323.595 341.9V178.1C323.595 166.433 327.562 157.333 335.495 150.8C343.429 144.267 354.045 141 367.345 141C380.879 141 391.612 144.033 399.545 150.1C407.479 155.933 411.445 163.633 411.445 173.2V213.1C411.445 217.3 408.412 220.217 402.345 221.85C399.079 222.783 395.812 223.25 392.545 223.25C389.279 223.25 386.012 222.9 382.745 222.2C383.445 216.6 383.795 210.65 383.795 204.35V178.1C383.795 173.667 382.279 170.283 379.245 167.95C376.212 165.383 372.245 164.1 367.345 164.1C362.445 164.1 358.479 165.383 355.445 167.95C352.645 170.283 351.245 173.667 351.245 178.1V339.8C351.245 348.2 355.445 352.4 363.845 352.4C372.479 352.4 379.129 348.317 383.795 340.15V287.65Z" fill="#DAA520"/>
<path d="M205.875 506.275C205.532 508.871 206.309 512.511 208.848 516.044C210.093 517.787 211.502 519.11 213.026 519.965L212.649 521.168C209.172 520.925 205.313 522.103 202.356 524.414C200.859 525.579 199.743 526.832 198.981 528.259L197.779 527.882C198.199 524.838 196.972 520.931 194.611 517.831C193.455 516.305 192.133 515.104 190.667 514.266L191.044 513.064C194.427 513.403 199.008 511.728 201.747 509.412C203.12 508.24 204.086 507.065 204.672 505.897L205.875 506.275Z" fill="#DAA520"/>
<path d="M159.552 485.958C158.694 488.433 158.722 492.154 160.498 496.127C161.368 498.085 162.481 499.664 163.802 500.809L163.19 501.911C159.834 500.974 155.817 501.351 152.456 503.018C150.755 503.858 149.41 504.861 148.376 506.106L147.275 505.494C148.299 502.597 147.883 498.522 146.194 495.011C145.369 493.283 144.316 491.84 143.048 490.724L143.66 489.623C146.905 490.636 151.729 489.918 154.878 488.2C156.459 487.329 157.641 486.372 158.45 485.346L159.552 485.958Z" fill="#DAA520"/>
<path d="M118.259 456.795C116.921 459.047 116.199 462.698 117.139 466.947C117.597 469.04 118.37 470.811 119.432 472.199L118.612 473.155C115.513 471.561 111.502 471.121 107.875 472.079C106.04 472.559 104.52 473.271 103.257 474.282L102.301 473.461C103.888 470.829 104.3 466.754 103.353 462.974C102.893 461.115 102.152 459.49 101.135 458.142L101.955 457.186C104.931 458.832 109.8 459.099 113.229 458.051C114.954 457.515 116.304 456.816 117.303 455.974L118.259 456.795Z" fill="#DAA520"/>
<path d="M83.6521 419.995C81.8877 421.931 80.4459 425.363 80.5118 429.714C80.5382 431.856 80.9387 433.747 81.7004 435.32L80.7043 436.091C77.9897 433.906 74.1497 432.668 70.4035 432.876C68.5094 432.977 66.8776 433.368 65.4371 434.104L64.6661 433.107C66.7495 430.849 67.9741 426.94 67.8072 423.047C67.7303 421.134 67.332 419.393 66.6071 417.867L67.6032 417.096C70.1862 419.307 74.9021 420.55 78.4723 420.213C80.2693 420.035 81.7328 419.623 82.8811 418.999L83.6521 419.995Z" fill="#DAA520"/>
<path d="M56.638 377.232C54.5201 378.773 52.417 381.844 51.6058 386.119C51.2005 388.223 51.2123 390.155 51.6418 391.849L50.5107 392.405C48.2914 389.718 44.779 387.732 41.0675 387.181C39.1918 386.899 37.5146 386.953 35.9552 387.384L35.4006 386.253C37.8961 384.46 39.8824 380.878 40.5025 377.032C40.8123 375.142 40.7725 373.357 40.3694 371.717L41.5004 371.161C43.5856 373.847 47.9552 376.014 51.5203 376.403C53.3163 376.59 54.833 376.481 56.0834 376.101L56.638 377.232Z" fill="#DAA520"/>
<path d="M39.1517 329.705C36.7669 330.788 34.0889 333.372 32.434 337.396C31.6136 339.375 31.2363 341.27 31.3162 343.016L30.0965 343.332C28.4632 340.253 25.4219 337.601 21.8971 336.314C20.1164 335.66 18.4625 335.376 16.8481 335.484L16.5325 334.264C19.3379 333.01 22.0043 329.902 23.3858 326.259C24.0696 324.471 24.3898 322.714 24.325 321.027L25.5447 320.711C27.0468 323.761 30.8913 326.763 34.3054 327.862C36.027 328.408 37.5347 328.606 38.8361 328.486L39.1517 329.705Z" fill="#DAA520"/>
<path d="M31.6232 279.627C29.0693 280.207 25.9261 282.199 23.4956 285.807C22.2938 287.58 21.543 289.361 21.27 291.087L20.0116 291.15C19.0311 287.806 16.5854 284.596 13.3916 282.625C11.7789 281.625 10.216 281.014 8.61284 280.795L8.54906 279.536C11.5494 278.874 14.7866 276.366 16.8727 273.076C17.9024 271.462 18.5694 269.806 18.8454 268.14L20.1038 268.076C20.9615 271.367 24.1235 275.081 27.2468 276.845C28.8234 277.727 30.2605 278.224 31.5595 278.369L31.6232 279.627Z" fill="#DAA520"/>
<path d="M530.973 281.275C533.573 280.956 536.901 279.293 539.684 275.949C541.059 274.307 541.986 272.612 542.432 270.922L543.69 270.986C544.328 274.413 546.436 277.854 549.414 280.138C550.918 281.296 552.411 282.062 553.984 282.442L553.92 283.701C550.868 284.057 547.394 286.223 544.986 289.285C543.798 290.787 542.967 292.367 542.524 293.997L541.266 293.933C540.745 290.572 537.975 286.556 535.046 284.485C533.567 283.449 532.187 282.808 530.909 282.533L530.973 281.275Z" fill="#DAA520"/>
<path d="M523.202 331.249C525.813 331.46 529.408 330.501 532.806 327.787C534.483 326.455 535.732 324.981 536.509 323.416L537.729 323.732C537.664 327.217 539.036 331.012 541.494 333.849C542.734 335.286 544.042 336.338 545.506 337.027L545.19 338.247C542.13 337.981 538.291 339.403 535.316 341.918C533.851 343.15 532.719 344.53 531.957 346.037L530.737 345.721C530.904 342.324 528.998 337.833 526.546 335.214C525.305 333.901 524.083 332.995 522.887 332.468L523.202 331.249Z" fill="#DAA520"/>
<path d="M505.626 378.7C508.14 379.433 511.854 379.217 515.729 377.243C517.639 376.276 519.159 375.083 520.235 373.707L521.366 374.262C520.601 377.663 521.182 381.657 523.018 384.931C523.943 386.588 525.013 387.882 526.308 388.852L525.754 389.984C522.809 389.106 518.763 389.727 515.344 391.591C513.661 392.503 512.274 393.627 511.225 394.95L510.094 394.395C510.94 391.1 509.977 386.317 508.102 383.258C507.152 381.722 506.137 380.588 505.071 379.832L505.626 378.7Z" fill="#DAA520"/>
<path d="M478.777 421.61C481.092 422.834 484.773 423.37 488.966 422.216C491.032 421.653 492.761 420.791 494.092 419.659L495.088 420.431C493.654 423.608 493.419 427.638 494.559 431.215C495.131 433.025 495.919 434.508 496.992 435.718L496.221 436.715C493.514 435.263 489.426 435.056 485.701 436.194C483.869 436.748 482.285 437.57 480.991 438.655L479.995 437.883C481.487 434.827 481.506 429.947 480.286 426.573C479.664 424.877 478.898 423.563 478.006 422.606L478.777 421.61Z" fill="#DAA520"/>
<path d="M443.669 458.048C445.691 459.713 449.188 460.98 453.528 460.693C455.665 460.558 457.531 460.061 459.063 459.22L459.883 460.177C457.839 463 456.798 466.901 457.194 470.634C457.391 472.522 457.864 474.132 458.671 475.535L457.716 476.356C455.356 474.388 451.393 473.363 447.516 473.727C445.61 473.901 443.892 474.388 442.406 475.19L441.586 474.234C443.663 471.54 444.664 466.764 444.148 463.213C443.88 461.427 443.394 459.985 442.714 458.869L443.669 458.048Z" fill="#DAA520"/>
<path d="M401.732 486.198C403.377 488.235 406.548 490.18 410.856 490.773C412.977 491.071 414.906 490.96 416.575 490.445L417.186 491.547C414.616 493.901 412.81 497.512 412.447 501.248C412.26 503.137 412.399 504.81 412.908 506.346L411.806 506.957C409.891 504.555 406.215 502.753 402.344 502.33C400.442 502.117 398.662 502.247 397.044 502.734L396.433 501.632C399.01 499.412 400.952 494.935 401.161 491.353C401.258 489.549 401.072 488.039 400.63 486.809L401.732 486.198Z" fill="#DAA520"/>
<path d="M355.331 505.955C356.532 508.282 359.248 510.825 363.349 512.273C365.366 512.992 367.278 513.272 369.017 513.104L369.394 514.306C366.402 516.094 363.907 519.267 362.799 522.854C362.235 524.666 362.035 526.332 362.224 527.939L361.022 528.317C359.629 525.578 356.391 523.073 352.684 521.879C350.864 521.287 349.094 521.057 347.412 521.207L347.035 520.005C350.005 518.349 352.809 514.356 353.734 510.89C354.193 509.142 354.315 507.626 354.129 506.332L355.331 505.955Z" fill="#DAA520"/>
<path d="M281.745 517.422L296.812 550.422H266.677L281.745 517.422Z" fill="#DAA520"/>
<path d="M281.744 566.422L266.392 550.422H297.096L281.744 566.422Z" fill="#DAA520"/>
</svg>
